# xmcd
#
# Track frame offsets:
#	150
#	12236
#	26557
#	40696
#	56588
#	66462
#	77660
#	89819
#	101156
#	114934
#	128815
#	145189
#	157760
#	166657
#	176580
#
# Disc length: 2566 seconds
#
# Revision: 0
# Processed by: cddbd v1.5.2PL0 Copyright (c) Steve Scherf et al.
# Submitted via: EasyCDDAExtractor 16.0.1.1
#
DISCID=bd0a040f
DTITLE=Various Artist - Χοροί and τραγούδια απ' όλη την Ελλάδα (2009)
DYEAR=2009
DGENRE=Δημοτικά
TTITLE0=Ορχηστρικό - Καραγκούνα
TTITLE1=Λάμπρος Παπαθανασίου - Τρία παιδιά Βολιώτικα (Καλαματιανό)
TTITLE2=Βούλα Πάλλα - Μαύρα μάτια στο ποτήρι
TTITLE3=Δημοσθένης Βαγγέλλης - Τρικαλινή μου πέρδικα (Τσάμικος)
TTITLE4=Φρόσω Ηλιοπούλου - Ρούσα παπαδιά (Συρτός)
TTITLE5=Δημοσθένης Βαγγέλλης - Πάνω σε ψηλή ραχούλα (Συρτός)
TTITLE6=Γιάννης Καλούσης - Μου παρήγγειλε τ' αηδόνι (Συρτός)
TTITLE7=Βούλα Πάλλα - Ένα νερό κυρά Βαγγελιώ
TTITLE8=Χρήστος Ζυγοβίνας - Γιούργια (Συρτός)
TTITLE9=Χρήστος Ζυγοβίνας - Νταϊλιάνα (Τσάμικος)
TTITLE10=Ελπίδα Βραχοπούλου - Ξενιτεμένο μου πουλί (Συρτός)
TTITLE11=Ορχηστρικό - Πωγωνίσιος χορός
TTITLE12=Δόμνα Σαμίου, Κώστας Ρούντας - Βασιλικός θα γίνω
TTITLE13=Δημήτρης Σοροβόλας - Γιάνναινα Γιαννάκαινα
TTITLE14=Ηλίας Παπαγεωργίου - Ιτιά (Τσάμικος)
EXTD=
EXTT0=
EXTT1=
EXTT2=
EXTT3=
EXTT4=
EXTT5=
EXTT6=
EXTT7=
EXTT8=
EXTT9=
EXTT10=
EXTT11=
EXTT12=
EXTT13=
EXTT14=
PLAYORDER=
